<svg id="Livello_1" data-name="Livello 1" xmlns="http://www.w3.org/2000/svg" viewBox="0 0 53.73 53.75"><defs><style>.cls-1{fill:#dbe200;}</style></defs><title>instagram GREEN</title><path class="cls-1" d="M315.3,393.89H278.46a8.45,8.45,0,0,0-8.45,8.46v36.84a8.45,8.45,0,0,0,8.45,8.45H315.3a8.45,8.45,0,0,0,8.45-8.45V402.35a8.45,8.45,0,0,0-8.45-8.46Zm-5.71,6.22,6.75,0h0a1.16,1.16,0,0,1,1.18,1.16V408a1.16,1.16,0,0,1-1.17,1.17l-6.75,0a1.16,1.16,0,0,1-1.17-1.16l0-6.77a1.16,1.16,0,0,1,1.16-1.18Zm-20.94,16a10.06,10.06,0,0,1,.57-.9,9.42,9.42,0,0,1,15.34,0,9.14,9.14,0,0,1,.57.9,9.35,9.35,0,0,1,1.23,4.61,9.46,9.46,0,0,1-18.92,0,9.32,9.32,0,0,1,1.23-4.62Zm29.87,21.1a5.16,5.16,0,0,1-5.15,5.15h-33a5.16,5.16,0,0,1-5.15-5.15v-22h8a14.67,14.67,0,0,0-1.08,5.51,14.69,14.69,0,1,0,28.82-4c-.15-.51-.32-1-.52-1.51h8Zm0,0" transform="translate(-270.01 -393.89)"/></svg>