<svg id="Livello_1" data-name="Livello 1" xmlns="http://www.w3.org/2000/svg" viewBox="0 0 76.36 80.15"><defs><style>.cls-1{fill:none;stroke:#d0dd3d;stroke-miterlimit:10;stroke-width:5px;}</style></defs><title>SUBSCRIBE</title><path class="cls-1" d="M412.65,294.82a4,4,0,0,1-1.24,2.93L385.54,323.7v4.5a3.9,3.9,0,0,0,2.54,3.85,3.77,3.77,0,0,0,4.56-.91L426,297.76a4.09,4.09,0,0,0,0-5.87l-33.37-33.37a3.88,3.88,0,0,0-2.93-1.24,4.56,4.56,0,0,0-1.63.32,3.9,3.9,0,0,0-2.54,3.85V266l25.88,25.88a4,4,0,0,1,1.24,2.93Zm0,0" transform="translate(-353.39 -254.78)"/><path class="cls-1" d="M383,294.82a4,4,0,0,1-1.24,2.93L355.89,323.7v4.5a3.9,3.9,0,0,0,2.54,3.85,3.77,3.77,0,0,0,4.56-.91l33.37-33.37a4.09,4.09,0,0,0,0-5.87L363,258.52a3.88,3.88,0,0,0-2.93-1.24,4.56,4.56,0,0,0-1.63.32,3.9,3.9,0,0,0-2.54,3.85V266l25.88,25.88a4,4,0,0,1,1.24,2.93Zm0,0" transform="translate(-353.39 -254.78)"/></svg>