<svg id="Livello_1" data-name="Livello 1" xmlns="http://www.w3.org/2000/svg" viewBox="0 0 52.28 42.49"><defs><style>.cls-1{fill:#dbe200;}</style></defs><title>twitter GREEN</title><path class="cls-1" d="M447.37,285.53a21.43,21.43,0,0,1-6.16,1.69,10.79,10.79,0,0,0,4.72-5.93,21.56,21.56,0,0,1-6.81,2.6,10.74,10.74,0,0,0-18.28,9.78,30.45,30.45,0,0,1-22.11-11.21A10.74,10.74,0,0,0,402,296.79a10.67,10.67,0,0,1-4.86-1.34v.14a10.73,10.73,0,0,0,8.61,10.52,10.72,10.72,0,0,1-4.84.19,10.74,10.74,0,0,0,10,7.45,21.71,21.71,0,0,1-15.88,4.44A30.36,30.36,0,0,0,411.52,323c19.73,0,30.52-16.35,30.52-30.52,0-.47,0-.93,0-1.39a21.77,21.77,0,0,0,5.35-5.55Zm0,0" transform="translate(-395.08 -280.5)"/></svg>