<svg id="Livello_1" data-name="Livello 1" xmlns="http://www.w3.org/2000/svg" viewBox="0 0 273.78 122.46"><defs><style>.cls-1{fill:#dbe200;}.cls-2{fill:#1d1e1c;}</style></defs><title>00_LOGO_Elasko_WEBSITE</title><g id="_Группа_" data-name="&lt;Группа&gt;"><path id="_Составной_контур_" data-name="&lt;Составной контур&gt;" d="M330.76,278.64v44.54a2.33,2.33,0,0,0,2.33,2.33h10.26a3.79,3.79,0,0,1,3.79,3.79h0a3.79,3.79,0,0,1-3.79,3.79H328a4.78,4.78,0,0,1-4.78-4.78V278.64Zm-7.58-13V215.34a3.79,3.79,0,0,1,3.79-3.79h0a3.79,3.79,0,0,1,3.79,3.79v50.32Z" transform="translate(-277.22 -211.04)"/></g><g id="_Группа_2" data-name="&lt;Группа&gt;"><path id="_Составной_контур_2" data-name="&lt;Составной контур&gt;" d="M376.32,278.64l-2.22,26.08-.76,7.59-1.52,17.34a3.78,3.78,0,0,1-3.77,3.45h0a3.78,3.78,0,0,1-3.77-4.11l4.4-50.34Zm11.69,0L392.4,329a3.78,3.78,0,0,1-3.77,4.11h0a3.78,3.78,0,0,1-3.77-3.45l-1.52-17.34-.61-7.59-2.33-26.08Z" transform="translate(-277.22 -211.04)"/></g><g id="_Группа_3" data-name="&lt;Группа&gt;"><path id="_Составной_контур_3" data-name="&lt;Составной контур&gt;" d="M459.4,265.67V215.34a3.79,3.79,0,0,1,3.79-3.79h0a3.79,3.79,0,0,1,3.79,3.79v50.32Zm7.58,13v50.74a3.69,3.69,0,0,1-3.69,3.72h-.19a3.7,3.7,0,0,1-3.7-3.7V278.64Zm10.47,0L489,328.57a3.7,3.7,0,0,1-3.6,4.53h0a3.7,3.7,0,0,1-3.6-2.87l-11.94-51.59Zm.4-10.7-7.1-2.28,11.09-51.19a3.71,3.71,0,0,1,3.62-2.92h0a3.71,3.71,0,0,1,3.62,4.49l-10.75,49.62Z" transform="translate(-277.22 -211.04)"/></g><g id="_Группа_4" data-name="&lt;Группа&gt;"><path id="_Контур_" data-name="&lt;Контур&gt;" class="cls-1" d="M433.8,274.52H548.66a2.34,2.34,0,0,0,2.34-2.34h0a2.34,2.34,0,0,0-2.34-2.34H431.75Z" transform="translate(-277.22 -211.04)"/><path id="_Контур_2" data-name="&lt;Контур&gt;" class="cls-1" d="M420.42,274.52h-119a2.34,2.34,0,0,1-2.34-2.34h0a2.34,2.34,0,0,1,2.34-2.34h117Z" transform="translate(-277.22 -211.04)"/></g><g id="_Группа_5" data-name="&lt;Группа&gt;"><path id="_Составной_контур_4" data-name="&lt;Составной контур&gt;" d="M285,323c-.34,1.59.63,2.42,2.19,2.38h15.11a3.78,3.78,0,0,1,3.78,3.78h0a3.78,3.78,0,0,1-3.78,3.78H281.92a4.62,4.62,0,0,1-4.59-5.67l9.39-47.37a34.29,34.29,0,0,0,.65-6.67v-2.13a34.29,34.29,0,0,0-.66-6.71l-9.38-47a4.68,4.68,0,0,1,.3-3,4.73,4.73,0,0,1,4.25-2.65H302.2a3.86,3.86,0,0,1,3.86,3.86h0a3.86,3.86,0,0,1-3.86,3.86H287.12a1.54,1.54,0,0,0-1.65,1.59L294.11,264a34.29,34.29,0,0,1,.82,7.47v1.37a34.29,34.29,0,0,1-.81,7.39Z" transform="translate(-277.22 -211.04)"/></g><path id="_Контур_3" data-name="&lt;Контур&gt;" d="M379.29,265.66l-.15-7.23a.78.78,0,0,0-1.55,0l-.15,7.23h-7.61l4.41-50.36a4.12,4.12,0,0,1,4.11-3.76h0a4.12,4.12,0,0,1,4.11,3.76l4.41,50.36Z" transform="translate(-277.22 -211.04)"/><g id="_Группа_6" data-name="&lt;Группа&gt;"><path id="_Составной_контур_5" data-name="&lt;Составной контур&gt;" d="M438.75,248.82h0a3.87,3.87,0,0,1-3.87-3.87V224.69a7.44,7.44,0,0,0-1.82-5,7.92,7.92,0,0,0-5.77-2.12c-2.28,0-4.55.76-5.62,2.12a6.7,6.7,0,0,0-1.67,5,100.46,100.46,0,0,0,1.67,20.18,103.61,103.61,0,0,0,4.1,15.78A135.56,135.56,0,0,0,431.24,274c.76,2.28,1.52,4.25,2.43,6.37a71.2,71.2,0,0,1,3.49,10.92,97,97,0,0,1,2.58,12.9c.61,4.55.45,9.86.45,15.78a13.24,13.24,0,0,1-1.06,5.62,14.47,14.47,0,0,1-3,4.25,21.37,21.37,0,0,1-4.86,2.73,22.93,22.93,0,0,1-6.68.91c-4.86,0-8.19-1.21-10.93-3.64a12.9,12.9,0,0,1-4.1-9.86V299.65a3.94,3.94,0,0,1,3.94-3.94h0a3.94,3.94,0,0,1,3.94,3.94V320a8,8,0,0,0,1.67,5c1.21,1.36,3.49,2,5.77,2s4.55-.61,5.62-2a7.16,7.16,0,0,0,1.67-5,100.92,100.92,0,0,0-1.67-20.33,103.92,103.92,0,0,0-4.1-15.78c-1.37-3.49-2.43-6.68-3.79-9.86,0,0-2.73-6.52-4.1-9.86A74.69,74.69,0,0,1,415,253.37a102.13,102.13,0,0,1-2.58-12.9c-.61-4.71-.45-10-.45-15.78a14,14,0,0,1,1.06-5.77,13.72,13.72,0,0,1,3-4.1,13.87,13.87,0,0,1,4.86-2.73,23.63,23.63,0,0,1,6.68-1.06c4.86,0,8.19,1.21,10.93,3.64a13.24,13.24,0,0,1,4.1,10V245A3.87,3.87,0,0,1,438.75,248.82Z" transform="translate(-277.22 -211.04)"/></g><path id="_Контур_4" data-name="&lt;Контур&gt;" class="cls-2" d="M534.1,265.66V225a13.45,13.45,0,0,0-12.57-13.47q-.61,0-1.27,0t-1.27,0a13.32,13.32,0,0,0-12.48,13.35v40.82h7.71V223.54s.13-5.87,6.13-5.87a5.81,5.81,0,0,1,5.83,3.81,7.7,7.7,0,0,1,.5,2.84v41.35h7.42Z" transform="translate(-277.22 -211.04)"/><path id="_Контур_5" data-name="&lt;Контур&gt;" class="cls-2" d="M506.51,278.66v40.7a13.45,13.45,0,0,0,12.57,13.47q.61,0,1.27,0t1.27,0a13.32,13.32,0,0,0,12.48-13.35V278.66h-7.71v42.13s-.12,5.88-6.12,5.88a5.81,5.81,0,0,1-5.83-3.81,7.7,7.7,0,0,1-.5-2.84V278.66h-7.42Z" transform="translate(-277.22 -211.04)"/></svg>